<svg width="24" height="24" viewBox="0 0 24 24" fill="none" xmlns="http://www.w3.org/2000/svg">
<path d="M6.08938 14.9993C5.71097 14.1487 5.5 13.2024 5.5 12.2052C5.5 8.5016 8.41015 5.49927 12 5.49927C15.5899 5.49927 18.5 8.5016 18.5 12.2052C18.5 13.2024 18.289 14.1487 17.9106 14.9993" stroke="#141B34" stroke-width="1.5" stroke-linecap="round"/>
<path d="M12 1.99927V2.99927" stroke="#141B34" stroke-width="1.5" stroke-linecap="round" stroke-linejoin="round"/>
<path d="M22 11.9993H21" stroke="#141B34" stroke-width="1.5" stroke-linecap="round" stroke-linejoin="round"/>
<path d="M3 11.9993H2" stroke="#141B34" stroke-width="1.5" stroke-linecap="round" stroke-linejoin="round"/>
<path d="M19.0704 4.92798L18.3633 5.63509" stroke="#141B34" stroke-width="1.5" stroke-linecap="round" stroke-linejoin="round"/>
<path d="M5.6368 5.63607L4.92969 4.92896" stroke="#141B34" stroke-width="1.5" stroke-linecap="round" stroke-linejoin="round"/>
<path d="M14.517 19.3057C15.5274 18.9789 15.9326 18.0541 16.0466 17.1239C16.0806 16.846 15.852 16.6155 15.572 16.6155L8.47686 16.6157C8.18726 16.6157 7.95468 16.8615 7.98926 17.149C8.10091 18.0774 8.38271 18.7556 9.45346 19.3057M14.517 19.3057C14.517 19.3057 9.62972 19.3057 9.45346 19.3057M14.517 19.3057C14.3955 21.2507 13.8338 22.021 12.0068 21.9994C10.0526 22.0355 9.60304 21.0834 9.45346 19.3057" stroke="#141B34" stroke-width="1.5" stroke-linecap="round" stroke-linejoin="round"/>
</svg>
