<svg width="24" height="24" viewBox="0 0 24 24" fill="none" xmlns="http://www.w3.org/2000/svg">
<g clip-path="url(#clip0_24_6342)">
<path d="M0.508656 11.8563C0.508098 13.8728 1.03498 15.8417 2.03684 17.5771L0.412842 23.5066L6.48094 21.9156C8.1593 22.8292 10.0398 23.308 11.9507 23.3081H11.9557C18.2641 23.3081 23.3993 18.1748 23.402 11.8653C23.4032 8.80792 22.2136 5.93295 20.0523 3.76997C17.8914 1.60718 15.0174 0.415458 11.9553 0.414062C5.64615 0.414062 0.511353 5.54709 0.508749 11.8563" fill="url(#paint0_linear_24_6342)"/>
<path d="M0.0995349 11.8527C0.0988837 13.9417 0.644651 15.981 1.68223 17.7786L0 23.9207L6.28568 22.2726C8.01758 23.2168 9.96754 23.7147 11.9517 23.7154H11.9568C18.4915 23.7154 23.8112 18.3975 23.814 11.8621C23.8151 8.69488 22.5827 5.71656 20.3442 3.47609C18.1054 1.23591 15.1287 0.00130233 11.9568 0C5.42102 0 0.10214 5.31721 0.0995349 11.8527ZM3.84288 17.469L3.60819 17.0965C2.62158 15.5277 2.10084 13.7149 2.10158 11.8534C2.10363 6.4213 6.52447 2.00186 11.9606 2.00186C14.5931 2.00298 17.0672 3.02921 18.928 4.89116C20.7887 6.7533 21.8127 9.22865 21.812 11.8614C21.8096 17.2935 17.3887 21.7135 11.9568 21.7135H11.9529C10.1843 21.7126 8.44967 21.2376 6.93693 20.34L6.57693 20.1265L2.84688 21.1045L3.84288 17.469Z" fill="url(#paint1_linear_24_6342)"/>
<path d="M8.99377 6.89746C8.77181 6.40416 8.53823 6.39421 8.32716 6.38556C8.15433 6.37811 7.95674 6.37867 7.75935 6.37867C7.56177 6.37867 7.24075 6.453 6.9694 6.74928C6.69777 7.04583 5.93237 7.76249 5.93237 9.22007C5.93237 10.6776 6.99405 12.0864 7.14205 12.2843C7.29023 12.4817 9.19163 15.5686 12.203 16.7562C14.7057 17.743 15.215 17.5468 15.7581 17.4973C16.3014 17.448 17.5111 16.7808 17.7579 16.089C18.0048 15.3973 18.0048 14.8043 17.9308 14.6804C17.8567 14.557 17.6592 14.4829 17.3629 14.3348C17.0666 14.1867 15.61 13.4698 15.3384 13.371C15.0668 13.2722 14.8693 13.2229 14.6717 13.5195C14.4741 13.8157 13.9068 14.4829 13.7339 14.6804C13.5611 14.8785 13.3882 14.9031 13.092 14.755C12.7955 14.6063 11.8414 14.2938 10.7094 13.2846C9.82865 12.4993 9.23405 11.5296 9.06121 11.2329C8.88837 10.9367 9.0427 10.7762 9.19126 10.6285C9.32437 10.4958 9.48763 10.2826 9.63591 10.1096C9.78363 9.93663 9.83293 9.81318 9.93172 9.6156C10.0306 9.41783 9.98112 9.24481 9.90716 9.09663C9.83293 8.94844 9.25721 7.48323 8.99377 6.89746Z" fill="white"/>
</g>
<defs>
<linearGradient id="paint0_linear_24_6342" x1="1149.87" y1="2309.67" x2="1149.87" y2="0.414062" gradientUnits="userSpaceOnUse">
<stop stop-color="#1FAF38"/>
<stop offset="1" stop-color="#60D669"/>
</linearGradient>
<linearGradient id="paint1_linear_24_6342" x1="1190.7" y1="2392.07" x2="1190.7" y2="0" gradientUnits="userSpaceOnUse">
<stop stop-color="#F9F9F9"/>
<stop offset="1" stop-color="white"/>
</linearGradient>
<clipPath id="clip0_24_6342">
<rect width="23.814" height="24" fill="white"/>
</clipPath>
</defs>
</svg>
