<svg width="24" height="24" viewBox="0 0 24 24" fill="none" xmlns="http://www.w3.org/2000/svg">
<path d="M5.656 20.479C5.51242 20.6038 5.3362 20.6851 5.14803 20.7133C4.95987 20.7415 4.76756 20.7155 4.59369 20.6382C4.41982 20.5609 4.2716 20.4356 4.16644 20.2771C4.06128 20.1185 4.00354 19.9332 4 19.743V17.5C3.46957 17.5 2.96086 17.2893 2.58579 16.9142C2.21071 16.5391 2 16.0304 2 15.5V8.5C2 7.96957 2.21071 7.46086 2.58579 7.08579C2.96086 6.71071 3.46957 6.5 4 6.5H15C15.5304 6.5 16.0391 6.71071 16.4142 7.08579C16.7893 7.46086 17 7.96957 17 8.5V15.5C17 16.0304 16.7893 16.5391 16.4142 16.9142C16.0391 17.2893 15.5304 17.5 15 17.5H10.003L5.656 20.479ZM18 12.517C17.9968 12.64 17.9968 12.763 18 12.886V12.516C18.005 12.409 18.006 11.069 18.004 8.497C18.0032 7.70187 17.6868 6.93958 17.1243 6.37762C16.5617 5.81566 15.7991 5.5 15.004 5.5H7V4.5C7 3.96957 7.21071 3.46086 7.58579 3.08579C7.96086 2.71071 8.46957 2.5 9 2.5H20C20.5304 2.5 21.0391 2.71071 21.4142 3.08579C21.7893 3.46086 22 3.96957 22 4.5V11.5C22 12.0304 21.7893 12.5391 21.4142 12.9142C21.0391 13.2893 20.5304 13.5 20 13.5V15.743C19.9965 15.9332 19.9387 16.1185 19.8336 16.2771C19.7284 16.4356 19.5802 16.5609 19.4063 16.6382C19.2324 16.7155 19.0401 16.7415 18.852 16.7133C18.6638 16.6851 18.4876 16.6038 18.344 16.479L18 16.243V12.517Z" fill="black"/>
</svg>
