<svg width="24" height="24" viewBox="0 0 24 24" fill="none" xmlns="http://www.w3.org/2000/svg">
<path d="M3.5 6.72958C2.54913 8.25986 2 10.0658 2 12C2 17.5228 6.47715 22 12 22C13.0452 22 14.053 21.8396 15 21.5422M20.353 17.5C21.394 15.9221 22 14.0318 22 12C22 6.47715 17.5228 2 12 2C10.9548 2 9.94704 2.16035 9 2.4578" stroke="#141B34" stroke-width="1.5" stroke-linecap="round" stroke-linejoin="round"/>
<path d="M5 7C6.10457 7 7 6.10457 7 5C7 3.89543 6.10457 3 5 3C3.89543 3 3 3.89543 3 5C3 6.10457 3.89543 7 5 7Z" stroke="#141B34" stroke-width="1.5" stroke-linecap="round" stroke-linejoin="round"/>
<path d="M19 21C20.1046 21 21 20.1046 21 19C21 17.8954 20.1046 17 19 17C17.8954 17 17 17.8954 17 19C17 20.1046 17.8954 21 19 21Z" stroke="#141B34" stroke-width="1.5" stroke-linecap="round" stroke-linejoin="round"/>
<path d="M8 17C9.10457 17 10 16.1046 10 15C10 13.8954 9.10457 13 8 13C6.89543 13 6 13.8954 6 15C6 16.1046 6.89543 17 8 17Z" stroke="#141B34" stroke-width="1.5" stroke-linecap="round" stroke-linejoin="round"/>
<path d="M12 17C14.7614 17 17 14.7614 17 12C17 9.23858 14.7614 7 12 7C9.23858 7 7 9.23858 7 12C7 12.3425 7.03443 12.6769 7.10002 13" stroke="#141B34" stroke-width="1.5" stroke-linecap="round" stroke-linejoin="round"/>
<path d="M12.009 12H12" stroke="#141B34" stroke-width="2" stroke-linecap="round" stroke-linejoin="round"/>
</svg>
