<svg width="14" height="20" viewBox="0 0 14 20" fill="none" xmlns="http://www.w3.org/2000/svg">
<path d="M7 20C6.76667 20 6.56667 19.9333 6.4 19.8C6.23333 19.6667 6.10833 19.4917 6.025 19.275C5.70833 18.3417 5.30833 17.4667 4.825 16.65C4.35833 15.8333 3.7 14.875 2.85 13.775C2 12.675 1.30833 11.625 0.775 10.625C0.258333 9.625 0 8.41667 0 7C0 5.05 0.675 3.4 2.025 2.05C3.39167 0.683333 5.05 0 7 0C8.95 0 10.6 0.683333 11.95 2.05C13.3167 3.4 14 5.05 14 7C14 8.51667 13.7083 9.78333 13.125 10.8C12.5583 11.8 11.9 12.7917 11.15 13.775C10.25 14.975 9.56667 15.975 9.1 16.775C8.65 17.5583 8.275 18.3917 7.975 19.275C7.89167 19.5083 7.75833 19.6917 7.575 19.825C7.40833 19.9417 7.21667 20 7 20ZM7 16.425C7.28333 15.8583 7.6 15.3 7.95 14.75C8.31667 14.2 8.85 13.4667 9.55 12.55C10.2667 11.6167 10.85 10.7583 11.3 9.975C11.7667 9.175 12 8.18333 12 7C12 5.61667 11.5083 4.44167 10.525 3.475C9.55833 2.49167 8.38333 2 7 2C5.61667 2 4.43333 2.49167 3.45 3.475C2.48333 4.44167 2 5.61667 2 7C2 8.18333 2.225 9.175 2.675 9.975C3.14167 10.7583 3.73333 11.6167 4.45 12.55C5.15 13.4667 5.675 14.2 6.025 14.75C6.39167 15.3 6.71667 15.8583 7 16.425ZM7 9.5C7.7 9.5 8.29167 9.25833 8.775 8.775C9.25833 8.29167 9.5 7.7 9.5 7C9.5 6.3 9.25833 5.70833 8.775 5.225C8.29167 4.74167 7.7 4.5 7 4.5C6.3 4.5 5.70833 4.74167 5.225 5.225C4.74167 5.70833 4.5 6.3 4.5 7C4.5 7.7 4.74167 8.29167 5.225 8.775C5.70833 9.25833 6.3 9.5 7 9.5Z" fill="#D7F400"/>
</svg>
