<svg width="24" height="24" viewBox="0 0 24 24" fill="none" xmlns="http://www.w3.org/2000/svg">
<path d="M3.5 6.25V8H8.129C8.32785 7.99983 8.51848 7.92069 8.659 7.78L10.189 6.25L8.659 4.72C8.51848 4.57931 8.32785 4.50017 8.129 4.5H5.25C4.78587 4.5 4.34075 4.68437 4.01256 5.01256C3.68437 5.34075 3.5 5.78587 3.5 6.25ZM2 6.25C2 5.38805 2.34241 4.5614 2.9519 3.9519C3.5614 3.34241 4.38805 3 5.25 3H8.129C8.72539 3.00026 9.29728 3.23729 9.719 3.659L11.562 5.5H18.751C19.6128 5.50027 20.4392 5.84279 21.0485 6.45226C21.6577 7.06172 22 7.88822 22 8.75V12.81C21.5539 12.3811 21.0488 12.0181 20.5 11.732V8.75C20.5 8.28587 20.3156 7.84075 19.9874 7.51256C19.6592 7.18437 19.2141 7 18.75 7H11.56L9.72 8.841C9.51107 9.04993 9.26303 9.21566 8.99004 9.32874C8.71706 9.44181 8.42447 9.5 8.129 9.5H3.5V17.75C3.5 18.716 4.284 19.5 5.25 19.5H11.313C11.486 20.034 11.725 20.537 12.022 21H5.25C4.38805 21 3.5614 20.6576 2.9519 20.0481C2.34241 19.4386 2 18.612 2 17.75V6.25Z" fill="black"/>
<path d="M16.8838 12C16.8226 11.9989 16.7631 12.0193 16.7155 12.0577C16.668 12.0961 16.6355 12.1501 16.6237 12.21L16.4337 13.53C16.1337 13.66 15.8438 13.82 15.5838 14L14.3438 13.5C14.2338 13.5 14.1037 13.5 14.0337 13.63L13.0337 15.36C12.9737 15.47 12.9938 15.6 13.0938 15.68L14.1538 16.5C14.1139 16.8322 14.1139 17.1679 14.1538 17.5L13.0938 18.32C13.0488 18.3586 13.0184 18.4113 13.0075 18.4695C12.9966 18.5277 13.0058 18.5878 13.0337 18.64L14.0337 20.37C14.0937 20.5 14.2238 20.5 14.3438 20.5L15.5838 20C15.8438 20.18 16.1237 20.35 16.4337 20.47L16.6237 21.79C16.6437 21.91 16.7438 22 16.8838 22H18.8838C18.9938 22 19.1038 21.91 19.1238 21.79L19.3138 20.47C19.6138 20.34 19.8838 20.18 20.1538 20L21.3837 20.5C21.5138 20.5 21.6438 20.5 21.7137 20.37L22.7137 18.64C22.7417 18.5878 22.7509 18.5277 22.74 18.4695C22.7291 18.4113 22.6987 18.3586 22.6538 18.32L21.5838 17.5C21.6038 17.33 21.6237 17.17 21.6237 17C21.6237 16.83 21.6138 16.67 21.5838 16.5L22.6438 15.68C22.6887 15.6415 22.7191 15.5888 22.73 15.5306C22.7409 15.4724 22.7317 15.4122 22.7037 15.36L21.7037 13.63C21.6437 13.5 21.5138 13.5 21.3837 13.5L20.1538 14C19.8838 13.82 19.6138 13.65 19.3038 13.53L19.1137 12.21C19.1074 12.1531 19.0806 12.1004 19.0383 12.0617C18.996 12.0231 18.941 12.0012 18.8838 12H16.8838ZM17.8838 15.5C18.7138 15.5 19.3838 16.17 19.3838 17C19.3838 17.83 18.7138 18.5 17.8838 18.5C17.0438 18.5 16.3838 17.83 16.3838 17C16.3838 16.17 17.0538 15.5 17.8838 15.5Z" fill="black"/>
</svg>
