<svg width="20" height="20" viewBox="0 0 20 20" fill="none" xmlns="http://www.w3.org/2000/svg">
<path d="M1.66663 10C1.66663 6.85754 1.66663 5.28587 2.64329 4.31004C3.61913 3.33337 5.19079 3.33337 8.33329 3.33337H11.6666C14.8091 3.33337 16.3808 3.33337 17.3566 4.31004C18.3333 5.28587 18.3333 6.85754 18.3333 10V11.6667C18.3333 14.8092 18.3333 16.3809 17.3566 17.3567C16.3808 18.3334 14.8091 18.3334 11.6666 18.3334H8.33329C5.19079 18.3334 3.61913 18.3334 2.64329 17.3567C1.66663 16.3809 1.66663 14.8092 1.66663 11.6667V10Z" stroke="black" stroke-width="1.25"/>
<path d="M5.83337 3.33337V2.08337M14.1667 3.33337V2.08337M2.08337 7.50004H17.9167" stroke="black" stroke-width="1.25" stroke-linecap="round"/>
</svg>
