<svg width="24" height="24" viewBox="0 0 24 24" fill="none" xmlns="http://www.w3.org/2000/svg">
<path d="M7.73486 13.7321C7.73486 13.7321 8.64032 12.51 9.23486 12.2316C11.0297 11.3913 11.3948 11.0261 12.2349 9.2307C12.5132 8.63597 13.7349 7.73022 13.7349 7.73022M10.2349 16.2329C10.2349 16.2329 11.4566 15.3271 11.7349 14.7324C12.575 12.9371 12.9401 12.5719 14.7349 11.7315C15.3294 11.4531 16.2349 10.231 16.2349 10.231" stroke="black" stroke-width="1.5" stroke-linecap="round" stroke-linejoin="round"/>
<path d="M14.431 2.89259C14.9379 2.38395 15.761 2.38264 16.2695 2.88968L21.0813 7.68778C21.5898 8.19482 21.5911 9.01819 21.0842 9.52684L19.5556 11.0608C19.0487 11.5694 18.2256 11.5707 17.7171 11.0637L12.9053 6.26559C12.3969 5.75855 12.3956 4.93518 12.9024 4.42653L14.431 2.89259Z" stroke="black" stroke-width="1.5"/>
<path d="M4.41377 12.9026C4.92065 12.394 5.74376 12.3927 6.25225 12.8997L11.0641 17.6978C11.5725 18.2049 11.5738 19.0282 11.067 19.5369L9.53836 21.0708C9.03148 21.5795 8.20837 21.5808 7.69988 21.0737L2.88808 16.2756C2.37959 15.7686 2.37829 14.9452 2.88517 14.4366L4.41377 12.9026Z" stroke="black" stroke-width="1.5"/>
<path d="M17.9377 3.45251C19.8201 0.985436 23.14 3.84007 20.5431 6.02869M3.37811 17.9773C0.998474 19.9687 3.99782 23.1586 6.06742 20.4656" stroke="black" stroke-width="1.5" stroke-linecap="round" stroke-linejoin="round"/>
</svg>
