<svg width="24" height="24" viewBox="0 0 24 24" fill="none" xmlns="http://www.w3.org/2000/svg">
<path d="M19.0001 5L12.0001 2L5.00006 5L8.50006 6.5V8.5M19.0001 5L15.5001 6.5V8.5M19.0001 5V9M8.50006 8.5C8.50006 8.5 9.66706 8 12.0001 8C14.3331 8 15.5001 8.5 15.5001 8.5M8.50006 8.5V9.5C8.50006 9.95963 8.59059 10.4148 8.76648 10.8394C8.94237 11.264 9.20018 11.6499 9.52519 11.9749C9.85019 12.2999 10.236 12.5577 10.6607 12.7336C11.0853 12.9095 11.5404 13 12.0001 13C12.4597 13 12.9148 12.9095 13.3395 12.7336C13.7641 12.5577 14.1499 12.2999 14.4749 11.9749C14.7999 11.6499 15.0577 11.264 15.2336 10.8394C15.4095 10.4148 15.5001 9.95963 15.5001 9.5V8.5M7.78306 16.703C6.68306 17.388 3.79706 18.785 5.55406 20.534C6.41306 21.39 7.37006 22 8.57106 22H15.4291C16.6311 22 17.5871 21.389 18.4461 20.534C20.2031 18.785 17.3181 17.388 16.2171 16.704C14.9511 15.9174 13.4905 15.5005 12.0001 15.5005C10.5097 15.5005 9.04897 15.9174 7.78306 16.704" stroke="#656565" stroke-width="1.5" stroke-linecap="round" stroke-linejoin="round"/>
</svg>
