<svg width="24" height="24" viewBox="0 0 24 24" fill="none" xmlns="http://www.w3.org/2000/svg">
<g clip-path="url(#clip0_24_6346)">
<path d="M23.8131 11.907C23.8131 5.33098 18.4821 0 11.9061 0C5.33012 0 -0.000854492 5.33098 -0.000854492 11.907C-0.000854492 17.85 4.35338 22.7761 10.0457 23.6693V15.3488H7.0224V11.907H10.0457V9.28372C10.0457 6.29954 11.8233 4.65116 14.5431 4.65116C15.8458 4.65116 17.2084 4.88372 17.2084 4.88372V7.81395H15.7071C14.2279 7.81395 13.7666 8.73181 13.7666 9.67349V11.907H17.0689L16.541 15.3488H13.7666V23.6693C19.4589 22.7761 23.8131 17.8501 23.8131 11.907Z" fill="#1877F2"/>
<path d="M16.5413 15.3488L17.0692 11.9069H13.7669V9.67345C13.7669 8.73168 14.2282 7.81391 15.7074 7.81391H17.2088V4.88368C17.2088 4.88368 15.8461 4.65112 14.5434 4.65112C11.8236 4.65112 10.046 6.2995 10.046 9.28368V11.9069H7.02271V15.3488H10.046V23.6693C10.6614 23.7657 11.2835 23.8141 11.9064 23.8139C12.5294 23.8141 13.1514 23.7657 13.7669 23.6693V15.3488H16.5413Z" fill="white"/>
</g>
<defs>
<clipPath id="clip0_24_6346">
<rect width="23.814" height="23.814" fill="white"/>
</clipPath>
</defs>
</svg>
