<svg width="24" height="24" viewBox="0 0 24 24" fill="none" xmlns="http://www.w3.org/2000/svg">
<path d="M6.25 10.5C8.59721 10.5 10.5 8.59721 10.5 6.25C10.5 3.90279 8.59721 2 6.25 2C3.90279 2 2 3.90279 2 6.25C2 8.59721 3.90279 10.5 6.25 10.5Z" stroke="black" stroke-width="1.5"/>
<path d="M17.75 22C20.0972 22 22 20.0972 22 17.75C22 15.4028 20.0972 13.5 17.75 13.5C15.4028 13.5 13.5 15.4028 13.5 17.75C13.5 20.0972 15.4028 22 17.75 22Z" stroke="black" stroke-width="1.5"/>
<path d="M6.25 22C8.59721 22 10.5 20.0972 10.5 17.75C10.5 15.4028 8.59721 13.5 6.25 13.5C3.90279 13.5 2 15.4028 2 17.75C2 20.0972 3.90279 22 6.25 22Z" stroke="black" stroke-width="1.5"/>
<path d="M20.8683 2.43909L21.5607 3.13146C22.1465 3.71724 22.1465 4.66699 21.5607 5.25278L17.9333 8.94844C17.6479 9.23379 17.2829 9.42615 16.8863 9.50024L14.6381 9.98829C14.2832 10.0653 13.9671 9.75017 14.0431 9.395L14.5216 7.15968C14.5957 6.76299 14.7881 6.39799 15.0734 6.11264L18.747 2.43909C19.3328 1.85331 20.2825 1.85331 20.8683 2.43909Z" stroke="black" stroke-width="1.5" stroke-linecap="round" stroke-linejoin="round"/>
</svg>
