<svg width="24" height="24" viewBox="0 0 24 24" fill="none" xmlns="http://www.w3.org/2000/svg">
<mask id="path-1-inside-1_438_9147" fill="white">
<path fill-rule="evenodd" clip-rule="evenodd" d="M12.5932 23.2579L12.5822 23.2599L12.5112 23.2949L12.4912 23.2989L12.4772 23.2949L12.4062 23.2599C12.3955 23.2566 12.3875 23.2583 12.3822 23.2649L12.3782 23.2749L12.3612 23.7029L12.3662 23.7229L12.3762 23.7359L12.4802 23.8099L12.4952 23.8139L12.5072 23.8099L12.6112 23.7359L12.6232 23.7199L12.6272 23.7029L12.6102 23.2759C12.6075 23.2653 12.6018 23.2593 12.5932 23.2579ZM12.8582 23.1449L12.8452 23.1469L12.6602 23.2399L12.6502 23.2499L12.6472 23.2609L12.6652 23.6909L12.6702 23.7029L12.6782 23.7099L12.8792 23.8029C12.8918 23.8063 12.9015 23.8036 12.9082 23.7949L12.9122 23.7809L12.8782 23.1669C12.8748 23.1549 12.8682 23.1476 12.8582 23.1449ZM12.1432 23.1469C12.1388 23.1443 12.1335 23.1434 12.1285 23.1445C12.1234 23.1456 12.119 23.1487 12.1162 23.1529L12.1102 23.1669L12.0762 23.7809C12.0768 23.7929 12.0825 23.8009 12.0932 23.8049L12.1082 23.8029L12.3092 23.7099L12.3192 23.7019L12.3232 23.6909L12.3402 23.2609L12.3372 23.2489L12.3272 23.2389L12.1432 23.1469Z"/>
</mask>
<path d="M12.5932 23.2579L12.7452 22.2696L12.5793 22.244L12.4142 22.2741L12.5932 23.2579ZM12.5822 23.2599L12.4032 22.2761L12.2655 22.3011L12.14 22.363L12.5822 23.2599ZM12.5112 23.2949L12.7073 24.2755L12.8358 24.2498L12.9533 24.1919L12.5112 23.2949ZM12.4912 23.2989L12.2165 24.2605L12.4496 24.3271L12.6873 24.2795L12.4912 23.2989ZM12.4772 23.2949L12.035 24.1919L12.1158 24.2317L12.2025 24.2565L12.4772 23.2949ZM12.4062 23.2599L12.8483 22.363L12.7786 22.3286L12.7044 22.3055L12.4062 23.2599ZM12.3822 23.2649L11.6013 22.6402L11.5087 22.756L11.4537 22.8936L12.3822 23.2649ZM12.3782 23.2749L11.4497 22.9036L11.3858 23.0633L11.379 23.2352L12.3782 23.2749ZM12.3612 23.7029L11.362 23.6632L11.3563 23.8064L11.391 23.9455L12.3612 23.7029ZM12.3662 23.7229L11.396 23.9655L11.4465 24.1675L11.5735 24.3326L12.3662 23.7229ZM12.3762 23.7359L11.5835 24.3456L11.6747 24.4641L11.7964 24.5507L12.3762 23.7359ZM12.4802 23.8099L11.9004 24.6247L12.0478 24.7296L12.2225 24.7762L12.4802 23.8099ZM12.4952 23.8139L12.2375 24.7802L12.5271 24.8574L12.8114 24.7626L12.4952 23.8139ZM12.5072 23.8099L12.8234 24.7586L12.9652 24.7114L13.0869 24.6247L12.5072 23.8099ZM12.6112 23.7359L13.1909 24.5507L13.3178 24.4605L13.4112 24.3359L12.6112 23.7359ZM12.6232 23.7199L13.4232 24.3199L13.5487 24.1526L13.5966 23.949L12.6232 23.7199ZM12.6272 23.7029L13.6006 23.932L13.6318 23.7993L13.6264 23.6632L12.6272 23.7029ZM12.6102 23.2759L13.6094 23.2362L13.6053 23.1333L13.5803 23.0334L12.6102 23.2759ZM12.8582 23.1449L13.1158 22.1787L12.9133 22.1247L12.7062 22.1566L12.8582 23.1449ZM12.8452 23.1469L12.6932 22.1586L12.5371 22.1826L12.396 22.2535L12.8452 23.1469ZM12.6602 23.2399L12.211 22.3465L12.067 22.4189L11.9531 22.5328L12.6602 23.2399ZM12.6502 23.2499L11.9431 22.5428L11.7553 22.7306L11.6854 22.9869L12.6502 23.2499ZM12.6472 23.2609L11.6824 22.9979L11.6416 23.1476L11.648 23.3028L12.6472 23.2609ZM12.6652 23.6909L11.666 23.7328L11.6735 23.911L11.7421 24.0756L12.6652 23.6909ZM12.6702 23.7029L11.7471 24.0876L11.8366 24.3023L12.0117 24.4555L12.6702 23.7029ZM12.6782 23.7099L12.0197 24.4625L12.1278 24.5572L12.2583 24.6175L12.6782 23.7099ZM12.8792 23.8029L12.4593 24.7105L12.5393 24.7476L12.6247 24.77L12.8792 23.8029ZM12.9082 23.7949L13.7008 24.4046L13.8172 24.2533L13.8697 24.0696L12.9082 23.7949ZM12.9122 23.7809L13.8737 24.0556L13.92 23.8938L13.9106 23.7256L12.9122 23.7809ZM12.8782 23.1669L13.8766 23.1116L13.8707 23.0036L13.8417 22.8993L12.8782 23.1669ZM12.1432 23.1469L11.6249 24.0021L11.6596 24.0232L11.696 24.0414L12.1432 23.1469ZM12.1162 23.1529L11.2845 22.5977L11.2333 22.6743L11.197 22.759L12.1162 23.1529ZM12.1102 23.1669L11.191 22.773L11.1215 22.9353L11.1117 23.1116L12.1102 23.1669ZM12.0762 23.7809L11.0777 23.7256L11.0746 23.781L11.0777 23.8364L12.0762 23.7809ZM12.0932 23.8049L11.742 24.7413L11.9768 24.8293L12.2254 24.7962L12.0932 23.8049ZM12.1082 23.8029L12.2404 24.7942L12.3906 24.7741L12.5281 24.7105L12.1082 23.8029ZM12.3092 23.7099L12.7291 24.6175L12.8391 24.5666L12.9338 24.4908L12.3092 23.7099ZM12.3192 23.7019L12.9438 24.4828L13.163 24.3075L13.259 24.0437L12.3192 23.7019ZM12.3232 23.6909L13.263 24.0327L13.3162 23.8862L13.3224 23.7304L12.3232 23.6909ZM12.3402 23.2609L13.3394 23.3004L13.345 23.1573L13.3103 23.0184L12.3402 23.2609ZM12.3372 23.2489L13.3073 23.0064L13.2401 22.7377L13.0443 22.5418L12.3372 23.2489ZM12.3272 23.2389L13.0343 22.5318L12.9195 22.4171L12.7744 22.3445L12.3272 23.2389ZM12.5932 23.2579L12.4142 22.2741L12.4032 22.2761L12.5822 23.2599L12.7611 24.2438L12.7721 24.2418L12.5932 23.2579ZM12.5822 23.2599L12.14 22.363L12.069 22.398L12.5112 23.2949L12.9533 24.1919L13.0243 24.1569L12.5822 23.2599ZM12.5112 23.2949L12.3151 22.3144L12.2951 22.3184L12.4912 23.2989L12.6873 24.2795L12.7073 24.2755L12.5112 23.2949ZM12.4912 23.2989L12.7659 22.3374L12.7519 22.3334L12.4772 23.2949L12.2025 24.2565L12.2165 24.2605L12.4912 23.2989ZM12.4772 23.2949L12.9193 22.398L12.8483 22.363L12.4062 23.2599L11.964 24.1569L12.035 24.1919L12.4772 23.2949ZM12.4062 23.2599L12.7044 22.3055C12.5936 22.2708 12.4091 22.2337 12.1883 22.2797C11.9458 22.3302 11.7422 22.4641 11.6013 22.6402L12.3822 23.2649L13.163 23.8896C13.0275 24.0591 12.8305 24.1888 12.5961 24.2377C12.3832 24.282 12.208 24.2457 12.1079 24.2144L12.4062 23.2599ZM12.3822 23.2649L11.4537 22.8936L11.4497 22.9036L12.3782 23.2749L13.3067 23.6463L13.3107 23.6363L12.3822 23.2649ZM12.3782 23.2749L11.379 23.2352L11.362 23.6632L12.3612 23.7029L13.3604 23.7426L13.3774 23.3146L12.3782 23.2749ZM12.3612 23.7029L11.391 23.9455L11.396 23.9655L12.3662 23.7229L13.3363 23.4804L13.3313 23.4604L12.3612 23.7029ZM12.3662 23.7229L11.5735 24.3326L11.5835 24.3456L12.3762 23.7359L13.1688 23.1262L13.1588 23.1132L12.3662 23.7229ZM12.3762 23.7359L11.7964 24.5507L11.9004 24.6247L12.4802 23.8099L13.0599 22.9951L12.9559 22.9211L12.3762 23.7359ZM12.4802 23.8099L12.2225 24.7762L12.2375 24.7802L12.4952 23.8139L12.7528 22.8477L12.7378 22.8437L12.4802 23.8099ZM12.4952 23.8139L12.8114 24.7626L12.8234 24.7586L12.5072 23.8099L12.191 22.8612L12.179 22.8652L12.4952 23.8139ZM12.5072 23.8099L13.0869 24.6247L13.1909 24.5507L12.6112 23.7359L12.0314 22.9211L11.9274 22.9951L12.5072 23.8099ZM12.6112 23.7359L13.4112 24.3359L13.4232 24.3199L12.6232 23.7199L11.8232 23.12L11.8112 23.136L12.6112 23.7359ZM12.6232 23.7199L13.5966 23.949L13.6006 23.932L12.6272 23.7029L11.6538 23.4739L11.6498 23.4909L12.6232 23.7199ZM12.6272 23.7029L13.6264 23.6632L13.6094 23.2362L12.6102 23.2759L11.611 23.3157L11.628 23.7427L12.6272 23.7029ZM12.6102 23.2759L13.5803 23.0334C13.5507 22.915 13.4843 22.7392 13.3309 22.5768C13.1654 22.4016 12.9547 22.3018 12.7452 22.2696L12.5932 23.2579L12.4411 24.2463C12.2403 24.2154 12.0367 24.1193 11.8769 23.95C11.7292 23.7936 11.667 23.6262 11.64 23.5185L12.6102 23.2759ZM12.8582 23.1449L12.7062 22.1566L12.6932 22.1586L12.8452 23.1469L12.9972 24.1353L13.0102 24.1333L12.8582 23.1449ZM12.8452 23.1469L12.396 22.2535L12.211 22.3465L12.6602 23.2399L13.1093 24.1334L13.2943 24.0404L12.8452 23.1469ZM12.6602 23.2399L11.9531 22.5328L11.9431 22.5428L12.6502 23.2499L13.3573 23.957L13.3673 23.947L12.6602 23.2399ZM12.6502 23.2499L11.6854 22.9869L11.6824 22.9979L12.6472 23.2609L13.6119 23.524L13.6149 23.513L12.6502 23.2499ZM12.6472 23.2609L11.648 23.3028L11.666 23.7328L12.6652 23.6909L13.6643 23.6491L13.6463 23.2191L12.6472 23.2609ZM12.6652 23.6909L11.7421 24.0756L11.7471 24.0876L12.6702 23.7029L13.5932 23.3183L13.5882 23.3063L12.6652 23.6909ZM12.6702 23.7029L12.0117 24.4555L12.0197 24.4625L12.6782 23.7099L13.3367 22.9573L13.3287 22.9503L12.6702 23.7029ZM12.6782 23.7099L12.2583 24.6175L12.4593 24.7105L12.8792 23.8029L13.2991 22.8954L13.0981 22.8024L12.6782 23.7099ZM12.8792 23.8029L12.6247 24.77C12.7508 24.8032 12.9424 24.828 13.1618 24.7674C13.3952 24.7031 13.5777 24.5647 13.7008 24.4046L12.9082 23.7949L12.1155 23.1852C12.232 23.0339 12.4063 22.9012 12.63 22.8394C12.8398 22.7816 13.0202 22.806 13.1337 22.8359L12.8792 23.8029ZM12.9082 23.7949L13.8697 24.0696L13.8737 24.0556L12.9122 23.7809L11.9506 23.5062L11.9466 23.5202L12.9082 23.7949ZM12.9122 23.7809L13.9106 23.7256L13.8766 23.1116L12.8782 23.1669L11.8797 23.2222L11.9137 23.8362L12.9122 23.7809ZM12.8782 23.1669L13.8417 22.8993C13.7662 22.6274 13.5429 22.2926 13.1158 22.1787L12.8582 23.1449L12.6005 24.1112C12.4286 24.0653 12.2625 23.9701 12.1308 23.8251C12.0054 23.6873 11.9444 23.5415 11.9147 23.4346L12.8782 23.1669ZM12.1432 23.1469L12.6615 22.2917C12.4366 22.1555 12.1679 22.1114 11.9115 22.1683L12.1285 23.1445L12.3454 24.1207C12.0991 24.1754 11.8409 24.1331 11.6249 24.0021L12.1432 23.1469ZM12.1285 23.1445L11.9115 22.1683C11.6551 22.2253 11.4304 22.3791 11.2845 22.5977L12.1162 23.1529L12.9479 23.7081C12.8077 23.9182 12.5918 24.0659 12.3454 24.1207L12.1285 23.1445ZM12.1162 23.1529L11.197 22.759L11.191 22.773L12.1102 23.1669L13.0293 23.5609L13.0353 23.5469L12.1162 23.1529ZM12.1102 23.1669L11.1117 23.1116L11.0777 23.7256L12.0762 23.7809L13.0746 23.8362L13.1086 23.2222L12.1102 23.1669ZM12.0762 23.7809L11.0777 23.8364C11.0861 23.9878 11.1311 24.185 11.2649 24.374C11.4012 24.5664 11.5806 24.6807 11.742 24.7413L12.0932 23.8049L12.4443 22.8686C12.5951 22.9252 12.7663 23.0335 12.8969 23.2179C13.0251 23.3989 13.0669 23.5861 13.0746 23.7255L12.0762 23.7809ZM12.0932 23.8049L12.2254 24.7962L12.2404 24.7942L12.1082 23.8029L11.9759 22.8117L11.961 22.8137L12.0932 23.8049ZM12.1082 23.8029L12.5281 24.7105L12.7291 24.6175L12.3092 23.7099L11.8893 22.8024L11.6883 22.8954L12.1082 23.8029ZM12.3092 23.7099L12.9338 24.4908L12.9438 24.4828L12.3192 23.7019L11.6945 22.921L11.6845 22.929L12.3092 23.7099ZM12.3192 23.7019L13.259 24.0437L13.263 24.0327L12.3232 23.6909L11.3834 23.3492L11.3794 23.3602L12.3192 23.7019ZM12.3232 23.6909L13.3224 23.7304L13.3394 23.3004L12.3402 23.2609L11.341 23.2214L11.324 23.6514L12.3232 23.6909ZM12.3402 23.2609L13.3103 23.0184L13.3073 23.0064L12.3372 23.2489L11.367 23.4915L11.37 23.5035L12.3402 23.2609ZM12.3372 23.2489L13.0443 22.5418L13.0343 22.5318L12.3272 23.2389L11.6201 23.946L11.6301 23.956L12.3372 23.2489ZM12.3272 23.2389L12.7744 22.3445L12.5904 22.2525L12.1432 23.1469L11.696 24.0414L11.88 24.1334L12.3272 23.2389Z" fill="#656565" mask="url(#path-1-inside-1_438_9147)"/>
<path d="M18 16.5C18.663 16.5 19.2987 16.7636 19.7676 17.2324C20.2364 17.7013 20.5 18.337 20.5 19C20.5 19.663 20.2364 20.2987 19.7676 20.7676C19.2987 21.2364 18.663 21.5 18 21.5C17.337 21.5 16.7013 21.2364 16.2324 20.7676C15.7636 20.2987 15.5 19.663 15.5 19C15.5 18.337 15.7636 17.7013 16.2324 17.2324C16.7013 16.7636 17.337 16.5 18 16.5ZM18 17.5C17.6022 17.5 17.2208 17.6581 16.9395 17.9395C16.6581 18.2208 16.5 18.6022 16.5 19C16.5 19.3978 16.6581 19.7792 16.9395 20.0605C17.2208 20.3419 17.6022 20.5 18 20.5C18.3978 20.5 18.7792 20.3419 19.0605 20.0605C19.3419 19.7792 19.5 19.3978 19.5 19C19.5 18.6022 19.3419 18.2208 19.0605 17.9395C18.7792 17.6581 18.3978 17.5 18 17.5ZM11 4.5H15.5C16.5609 4.5 17.578 4.92173 18.3281 5.67188C19.0783 6.42202 19.5 7.43913 19.5 8.5C19.5 9.56087 19.0783 10.578 18.3281 11.3281C17.578 12.0783 16.5609 12.5 15.5 12.5H8.5C7.70435 12.5 6.94152 12.8163 6.37891 13.3789C5.8163 13.9415 5.5 14.7044 5.5 15.5C5.5 16.2956 5.8163 17.0585 6.37891 17.6211C6.94152 18.1837 7.70435 18.5 8.5 18.5H13C13.1326 18.5 13.2597 18.5527 13.3535 18.6465C13.4473 18.7403 13.5 18.8674 13.5 19C13.5 19.1326 13.4473 19.2597 13.3535 19.3535C13.2597 19.4473 13.1326 19.5 13 19.5H8.5C7.50539 19.5 6.54921 19.1293 5.81543 18.4648L5.67188 18.3281C4.92173 17.578 4.5 16.5609 4.5 15.5C4.5 14.5054 4.87069 13.5492 5.53516 12.8154L5.67188 12.6719C6.42202 11.9217 7.43913 11.5 8.5 11.5H15.5C16.1963 11.5 16.8675 11.2578 17.4014 10.8203L17.6211 10.6211C18.1837 10.0585 18.5 9.29565 18.5 8.5C18.5 7.70435 18.1837 6.94152 17.6211 6.37891C17.0585 5.8163 16.2956 5.5 15.5 5.5H11C10.8674 5.5 10.7403 5.44728 10.6465 5.35352C10.5527 5.25975 10.5 5.13261 10.5 5C10.5 4.86739 10.5527 4.74025 10.6465 4.64648C10.7403 4.55272 10.8674 4.5 11 4.5ZM6 2.5C6.58011 2.5 7.13914 2.70197 7.58398 3.06641L7.76758 3.23242C8.23642 3.70126 8.5 4.33696 8.5 5C8.5 5.66304 8.23642 6.29874 7.76758 6.76758C7.29874 7.23642 6.66304 7.5 6 7.5C5.41989 7.5 4.86086 7.29803 4.41602 6.93359L4.23242 6.76758C3.76358 6.29874 3.5 5.66304 3.5 5L3.5127 4.75293C3.5614 4.26244 3.75404 3.7973 4.06641 3.41602L4.23242 3.23242C4.64265 2.82219 5.18063 2.56952 5.75293 2.5127L6 2.5ZM6 3.5C5.60217 3.5 5.22076 3.65815 4.93945 3.93945C4.65815 4.22076 4.5 4.60217 4.5 5C4.5 5.39783 4.65815 5.77924 4.93945 6.06055C5.22076 6.34185 5.60217 6.5 6 6.5C6.39783 6.5 6.77924 6.34185 7.06055 6.06055C7.34185 5.77924 7.5 5.39783 7.5 5C7.5 4.60217 7.34185 4.22076 7.06055 3.93945C6.77924 3.65815 6.39783 3.5 6 3.5Z" fill="black" stroke="#656565"/>
</svg>
