<svg width="24" height="24" viewBox="0 0 24 24" fill="none" xmlns="http://www.w3.org/2000/svg">
<path d="M13.9943 2.84587L13.994 2.84574C13.9151 2.81334 13.7957 2.78375 13.5523 2.76729C13.3023 2.7504 12.9796 2.75 12.4999 2.75C12.0203 2.75 11.6979 2.7504 11.448 2.76729C11.2049 2.78373 11.0851 2.8133 11.0053 2.846L13.9943 2.84587ZM13.9943 2.84587C14.147 2.90855 14.2859 3.00071 14.4031 3.11709C14.5202 3.23348 14.6133 3.3718 14.6769 3.52416L14.6778 3.52632C14.7171 3.61934 14.75 3.76609 14.7643 4.12247M13.9943 2.84587L15.3689 3.235C15.4629 3.458 15.4989 3.718 15.5139 4.098M21.9829 15.395C22.0173 15.1343 21.9996 14.8693 21.931 14.6155C21.8623 14.3616 21.744 14.1239 21.5829 13.916L20.9019 10.64M21.9829 15.395L21.2396 15.2953C21.2396 15.2954 21.2396 15.2955 21.2396 15.2957M21.9829 15.395L21.2394 15.297C21.2394 15.2966 21.2395 15.2961 21.2396 15.2957M21.9829 15.395C21.9299 15.79 21.6959 16.193 21.2259 17C20.7569 17.807 20.5219 18.211 20.2039 18.453C19.7799 18.776 19.2439 18.919 18.714 18.849M21.2396 15.2957C21.2607 15.1336 21.2497 14.969 21.207 14.8113C21.1642 14.6531 21.0905 14.5049 20.9901 14.3754L20.9889 14.3739C20.9256 14.2918 20.8113 14.1883 20.5053 13.9969L20.9029 13.361L20.5065 13.9977C19.8305 13.5767 19.3699 12.8407 19.3699 12C19.3699 11.1601 19.8297 10.4241 20.5047 10.0038M21.2396 15.2957C21.2283 15.3788 21.1949 15.4951 21.0883 15.7111C20.9785 15.9335 20.8179 16.2104 20.5779 16.6225L20.5775 16.6231C20.3379 17.0355 20.1766 17.3121 20.0372 17.518C19.9017 17.7182 19.8168 17.8051 19.7498 17.8562L19.7495 17.8564C19.4829 18.0595 19.1456 18.1495 18.8122 18.1055M20.5047 10.0038C20.5044 10.004 20.5041 10.0042 20.5037 10.0044L20.9019 10.64M20.5047 10.0038C20.5051 10.0036 20.5055 10.0033 20.5059 10.0031L20.9019 10.64M20.5047 10.0038C20.8104 9.81225 20.926 9.70831 20.991 9.62474M20.9019 10.64C21.2259 10.437 21.4349 10.276 21.5839 10.084M20.991 9.62474C20.9909 9.62482 20.9909 9.62491 20.9908 9.62499L21.5839 10.084M20.991 9.62474C20.9911 9.62456 20.9913 9.62437 20.9914 9.62419L21.5839 10.084M20.991 9.62474C21.0912 9.49523 21.1647 9.34716 21.2074 9.18908C21.2499 9.03124 21.2609 8.86653 21.2396 8.70444M21.5839 10.084C21.7449 9.87606 21.863 9.63829 21.9315 9.38443C22 9.13057 22.0174 8.86566 21.9829 8.605M21.9829 8.605L21.2396 8.70499C21.2396 8.70481 21.2396 8.70463 21.2396 8.70444M21.9829 8.605C21.9299 8.211 21.6959 7.807 21.2259 7L21.2203 6.99035C20.7541 6.18978 20.5207 5.78903 20.2039 5.547M21.9829 8.605L21.2394 8.70341C21.2395 8.70375 21.2395 8.7041 21.2396 8.70444M21.2396 8.70444C21.2284 8.62174 21.1948 8.50535 21.0882 8.28916C20.9784 8.06659 20.8178 7.78942 20.5779 7.37745C20.3376 6.96487 20.1762 6.68839 20.0368 6.48234C19.9018 6.2829 19.817 6.1954 19.7494 6.14354M20.2039 5.547L19.75 6.14402C19.7498 6.14386 19.7496 6.1437 19.7494 6.14354M20.2039 5.547C19.7789 5.2238 19.2434 5.08148 18.714 5.151M20.2039 5.547L19.7486 6.14293C19.7488 6.14313 19.7491 6.14333 19.7494 6.14354M19.7494 6.14354C19.4818 5.94039 19.145 5.85093 18.8119 5.89457M18.714 5.151L18.8123 5.89453C18.8122 5.89454 18.812 5.89456 18.8119 5.89457M18.714 5.151C18.472 5.183 18.2269 5.281 17.8889 5.459M18.714 5.151L18.8116 5.89462C18.8117 5.8946 18.8118 5.89459 18.8119 5.89457M18.8119 5.89457C18.7047 5.90881 18.5554 5.9559 18.2422 6.12062M17.8889 5.459L18.2469 6.11807C18.2453 6.11892 18.2438 6.11977 18.2422 6.12062M17.8889 5.459C17.6462 5.59083 17.3741 5.65922 17.0979 5.65782C16.8217 5.65642 16.5503 5.58528 16.3089 5.451C16.0723 5.31166 15.8752 5.11429 15.7361 4.87755C15.597 4.64081 15.5205 4.37251 15.5139 4.098M17.8889 5.459L18.2384 6.1226C18.2397 6.12194 18.2409 6.12128 18.2422 6.12062M18.2422 6.12062C17.8897 6.31107 17.4949 6.40984 17.0941 6.40781C16.6916 6.40577 16.2961 6.3021 15.9443 6.10641L15.9363 6.10193L15.9284 6.09726C15.5819 5.89321 15.2931 5.60419 15.0894 5.2575C14.8868 4.9127 14.775 4.52218 14.7643 4.12247M14.7643 4.12247C14.7644 4.12417 14.7645 4.12587 14.7645 4.12758L15.5139 4.098M14.7643 4.12247C14.7643 4.12029 14.7642 4.11811 14.7642 4.11593L15.5139 4.098M18.8122 18.1055C18.8122 18.1055 18.8122 18.1055 18.8123 18.1055L18.714 18.849M18.8122 18.1055C18.7049 18.0913 18.5556 18.0442 18.2421 17.8793M18.8122 18.1055L18.714 18.849M18.714 18.849C18.472 18.817 18.2269 18.719 17.8889 18.541M18.2421 17.8793C18.2436 17.8801 18.2451 17.881 18.2467 17.8818L17.8889 18.541M18.2421 17.8793C17.8897 17.6891 17.4951 17.5904 17.0946 17.5925C16.6924 17.5945 16.2972 17.698 15.9456 17.8935L15.9455 17.8934L15.9371 17.8982C15.2083 18.3157 14.793 19.078 14.7644 19.8751L15.5139 19.902M18.2421 17.8793C18.2408 17.8787 18.2396 17.878 18.2384 17.8774L17.8889 18.541M17.8889 18.541C17.6463 18.4093 17.3744 18.3411 17.0984 18.3425C16.8224 18.3439 16.5512 18.4149 16.3099 18.549C15.8229 18.828 15.5339 19.344 15.5139 19.902M15.5139 19.902L14.7645 19.8724C14.7503 20.2325 14.7172 20.3802 14.6778 20.4737L14.677 20.4757C14.5483 20.7835 14.3027 21.0275 13.9941 21.1542L13.994 21.1543C13.9151 21.1867 13.7957 21.2163 13.5523 21.2327C13.3023 21.2496 12.9796 21.25 12.4999 21.25C12.0203 21.25 11.6976 21.2496 11.4476 21.2327C11.2043 21.2163 11.0849 21.1867 11.006 21.1543L15.5139 19.902ZM9.48595 19.902L10.2354 19.8724C10.2354 19.8726 10.2354 19.8728 10.2354 19.8729C10.2496 20.2326 10.2827 20.3803 10.3221 20.4737L10.3233 20.4767C10.4505 20.7821 10.6955 21.0266 11.0059 21.1543L6.188 18.1054M9.48595 19.902C9.46495 19.344 9.17695 18.829 8.69095 18.549M9.48595 19.902C9.50095 20.282 9.53695 20.542 9.63095 20.765L9.48595 19.902ZM8.69095 18.549L8.69096 18.549L8.69095 18.549ZM8.69095 18.549C8.44957 18.4147 8.17819 18.3436 7.90198 18.3422C7.62577 18.3408 7.35367 18.4092 7.11095 18.541M7.11095 18.541L6.76148 17.8774C6.76023 17.8781 6.75898 17.8787 6.75773 17.8794C6.75615 17.8802 6.75458 17.8811 6.753 17.8819L7.11095 18.541ZM7.11095 18.541C6.77295 18.719 6.52795 18.817 6.28595 18.849M6.28595 18.849L6.18912 18.1053C6.18875 18.1053 6.18837 18.1054 6.188 18.1054M6.28595 18.849C5.75595 18.918 5.21995 18.776 4.79595 18.453L6.188 18.1054M6.28595 18.849L6.18763 18.1055C6.18775 18.1055 6.18787 18.1054 6.188 18.1054" stroke="black" stroke-width="1.5"/>
<path d="M15.5231 12C15.5231 13.657 14.1691 15 12.5001 15C10.8301 15 9.47705 13.657 9.47705 12C9.47705 10.343 10.8301 9 12.5001 9C14.1701 9 15.5231 10.343 15.5231 12Z" fill="black"/>
</svg>
