<svg width="24" height="24" viewBox="0 0 24 24" fill="none" xmlns="http://www.w3.org/2000/svg">
<path d="M7.375 16.0471H16.625M21.25 9.88306V17.5811C21.25 18.3987 20.9252 19.1829 20.347 19.7611C19.7688 20.3392 18.9847 20.6641 18.167 20.6641H5.833C5.01534 20.6641 4.23116 20.3392 3.65299 19.7611C3.07482 19.1829 2.75 18.3987 2.75 17.5811V6.41906C2.75 5.6014 3.07482 4.81722 3.65299 4.23905C4.23116 3.66088 5.01534 3.33606 5.833 3.33606H8.917C9.42573 3.33572 9.92664 3.46129 10.3751 3.70155C10.8235 3.94182 11.2055 4.28931 11.487 4.71306L12.36 6.03906C12.5201 6.27619 12.7359 6.4704 12.9885 6.60465C13.2412 6.7389 13.5229 6.80909 13.809 6.80906H18.167C18.983 6.80932 19.7657 7.13298 20.3435 7.70916C20.9214 8.28533 21.2474 9.06704 21.25 9.88306Z" stroke="black" stroke-width="1.5" stroke-linecap="round" stroke-linejoin="round"/>
<path d="M11.517 4.72308L18.444 3.61308C18.6639 3.57713 18.889 3.5896 19.1035 3.64963C19.3181 3.70966 19.517 3.81579 19.6863 3.96063C19.8556 4.10546 19.9912 4.2855 20.0838 4.48817C20.1763 4.69085 20.2235 4.91128 20.222 5.13408V7.59108" stroke="black" stroke-width="1.5" stroke-linecap="round" stroke-linejoin="round"/>
<path d="M12 12.25C12.599 12.25 13.1437 12.4235 13.5445 12.668C13.7445 12.79 13.9155 12.934 14.039 13.0905C14.1605 13.2442 14.25 13.4282 14.25 13.625C14.25 13.8362 14.1473 14.0027 13.9992 14.1215C13.8593 14.234 13.6745 14.3085 13.4783 14.3605C13.0838 14.4647 12.5573 14.5 12 14.5C11.4427 14.5 10.9162 14.465 10.5217 14.3605C10.3255 14.3085 10.1407 14.234 10.0007 14.1215C9.8525 14.0025 9.75 13.8362 9.75 13.625C9.75 13.4282 9.8395 13.2442 9.961 13.0902C10.0845 12.934 10.2552 12.7902 10.4555 12.6677C10.8563 12.4237 11.4013 12.25 12 12.25ZM12 9.5C12.3315 9.5 12.6495 9.6317 12.8839 9.86612C13.1183 10.1005 13.25 10.4185 13.25 10.75C13.25 11.0815 13.1183 11.3995 12.8839 11.6339C12.6495 11.8683 12.3315 12 12 12C11.6685 12 11.3505 11.8683 11.1161 11.6339C10.8817 11.3995 10.75 11.0815 10.75 10.75C10.75 10.4185 10.8817 10.1005 11.1161 9.86612C11.3505 9.6317 11.6685 9.5 12 9.5Z" fill="black"/>
</svg>
