<svg width="24" height="24" viewBox="0 0 24 24" fill="none" xmlns="http://www.w3.org/2000/svg">
<g clip-path="url(#clip0_24_6349)">
<path d="M11.9069 0C8.74965 0 5.71895 1.25526 3.48825 3.48744C1.25527 5.72053 0.000516904 8.74899 -0.00012207 11.907C-0.00012207 15.0636 1.25569 18.0943 3.48825 20.3265C5.71895 22.5587 8.74965 23.814 11.9069 23.814C15.0641 23.814 18.0948 22.5587 20.3255 20.3265C22.558 18.0943 23.8138 15.0636 23.8138 11.907C23.8138 8.75033 22.558 5.71963 20.3255 3.48744C18.0948 1.25526 15.0641 0 11.9069 0Z" fill="url(#paint0_linear_24_6349)"/>
<path d="M5.3895 11.7811C8.86113 10.2689 11.1755 9.27195 12.3328 8.79021C15.6407 7.41477 16.3272 7.17589 16.7755 7.1678C16.8742 7.16621 17.0937 7.19059 17.2369 7.3064C17.356 7.40407 17.3895 7.53617 17.4062 7.62891C17.4211 7.72156 17.4416 7.93273 17.4248 8.09756C17.2462 9.98035 16.4704 14.5493 16.076 16.6581C15.9104 17.5504 15.5811 17.8496 15.263 17.8788C14.5709 17.9424 14.0462 17.4218 13.3765 16.983C12.329 16.2959 11.7374 15.8684 10.7197 15.198C9.54392 14.4233 10.3067 13.9975 10.9765 13.3017C11.1514 13.1195 14.1988 10.3484 14.2565 10.097C14.2639 10.0656 14.2714 9.94835 14.2007 9.88659C14.1318 9.82463 14.0295 9.84584 13.9551 9.86259C13.849 9.8864 12.1765 10.993 8.93183 13.1822C8.45741 13.5085 8.02764 13.6676 7.64066 13.6592C7.21648 13.6501 6.39787 13.4189 5.7895 13.2213C5.04531 12.9789 4.45183 12.8507 4.50392 12.439C4.52996 12.2246 4.82578 12.0053 5.3895 11.7811Z" fill="white"/>
</g>
<defs>
<linearGradient id="paint0_linear_24_6349" x1="1190.7" y1="0" x2="1190.7" y2="2381.4" gradientUnits="userSpaceOnUse">
<stop stop-color="#2AABEE"/>
<stop offset="1" stop-color="#229ED9"/>
</linearGradient>
<clipPath id="clip0_24_6349">
<rect width="23.814" height="23.814" fill="white"/>
</clipPath>
</defs>
</svg>
