<svg width="24" height="24" viewBox="0 0 24 24" fill="none" xmlns="http://www.w3.org/2000/svg">
<path d="M21.5086 3.4876L20.5149 2.49385C20.4774 2.45635 20.4305 2.43994 20.3813 2.43994C20.3321 2.43994 20.2852 2.45869 20.2477 2.49385L18.4641 4.27744C17.6887 3.7521 16.7733 3.472 15.8368 3.47354C14.6368 3.47354 13.4368 3.93057 12.5204 4.84697L10.1321 7.23525C10.0972 7.27049 10.0776 7.31808 10.0776 7.36768C10.0776 7.41727 10.0972 7.46486 10.1321 7.5001L16.5 13.8681C16.5375 13.9056 16.5844 13.922 16.6336 13.922C16.6805 13.922 16.7297 13.9032 16.7672 13.8681L19.1555 11.4798C20.7704 9.8626 20.9602 7.36182 19.725 5.53838L21.5086 3.75479C21.5813 3.67979 21.5813 3.56025 21.5086 3.4876ZM18.0258 10.3524L16.6336 11.7446L12.2555 7.3665L13.6477 5.97432C14.2313 5.39072 15.0094 5.06729 15.8368 5.06729C16.6641 5.06729 17.4399 5.38838 18.0258 5.97432C18.6094 6.55791 18.9329 7.33603 18.9329 8.16338C18.9329 8.99072 18.6094 9.7665 18.0258 10.3524ZM13.568 12.8134C13.5328 12.7785 13.4852 12.7589 13.4356 12.7589C13.386 12.7589 13.3384 12.7785 13.3032 12.8134L11.7422 14.3743L9.62583 12.2579L11.1891 10.6946C11.2618 10.622 11.2618 10.5024 11.1891 10.4298L10.336 9.57666C10.3007 9.54177 10.2532 9.52219 10.2036 9.52219C10.154 9.52219 10.1064 9.54177 10.0711 9.57666L8.50786 11.1399L7.50005 10.1321C7.48255 10.1146 7.4617 10.1008 7.43875 10.0916C7.41579 10.0823 7.39121 10.0778 7.36646 10.0782C7.31958 10.0782 7.27036 10.097 7.23286 10.1321L4.84693 12.5204C3.23208 14.1376 3.04224 16.6384 4.27739 18.4618L2.4938 20.2454C2.45891 20.2807 2.43933 20.3282 2.43933 20.3778C2.43933 20.4274 2.45891 20.475 2.4938 20.5103L3.48755 21.504C3.52505 21.5415 3.57192 21.5579 3.62114 21.5579C3.67036 21.5579 3.71724 21.5392 3.75474 21.504L5.53833 19.7204C6.32817 20.2571 7.24692 20.5243 8.16568 20.5243C9.36567 20.5243 10.5657 20.0673 11.4821 19.1509L13.8704 16.7626C13.943 16.6899 13.943 16.5704 13.8704 16.4978L12.8625 15.4899L14.4258 13.9267C14.4985 13.854 14.4985 13.7345 14.4258 13.6618L13.568 12.8134ZM10.3524 18.0259C10.0655 18.3142 9.72439 18.5428 9.34865 18.6985C8.97291 18.8542 8.57004 18.9339 8.16333 18.9329C7.33599 18.9329 6.56021 18.6118 5.97427 18.0259C5.68594 17.739 5.45733 17.3979 5.30165 17.0221C5.14596 16.6464 5.06629 16.2435 5.06724 15.8368C5.06724 15.0095 5.38833 14.2337 5.97427 13.6478L7.36646 12.2556L11.7446 16.6337L10.3524 18.0259Z" fill="black"/>
</svg>
