<svg width="24" height="24" viewBox="0 0 24 24" fill="none" xmlns="http://www.w3.org/2000/svg">
<path d="M7.5 15.75V2.25L9 3L10.5 2.25L11.9972 3L13.5145 2.25L15 3L16.4902 2.25L17.9869 3L19.5 2.25L21.0005 3L22.5 2.25V12.75" stroke="#656565" stroke-width="1.5" stroke-linejoin="round"/>
<path d="M22.5 12.75V18C22.5 18.9946 22.1049 19.9484 21.4017 20.6517C20.6984 21.3549 19.7446 21.75 18.75 21.75M18.75 21.75C17.7555 21.75 16.8016 21.3549 16.0984 20.6517C15.3951 19.9484 15 18.9946 15 18V15.75H2.25003C2.15129 15.7491 2.05337 15.7679 1.96198 15.8053C1.87059 15.8427 1.78757 15.8979 1.71775 15.9677C1.64793 16.0375 1.59272 16.1206 1.55534 16.212C1.51796 16.3033 1.49915 16.4013 1.50003 16.5C1.50003 19.5 1.81597 21.75 5.25003 21.75H18.75Z" stroke="#656565" stroke-width="1.5" stroke-linejoin="round"/>
<path d="M10.5 6.75H19.5M13.5 10.5H19.5" stroke="#656565" stroke-width="1.5" stroke-linecap="round" stroke-linejoin="round"/>
</svg>
