<svg width="24" height="24" viewBox="0 0 24 24" fill="none" xmlns="http://www.w3.org/2000/svg">
<mask id="path-1-inside-1_24_6006" fill="white">
<path d="M16.5 2C15.668 1.99982 14.8468 2.18841 14.0982 2.55157C13.3496 2.91472 12.6932 3.44298 12.1783 4.09656C11.6635 4.75014 11.3036 5.51202 11.1258 6.32482C10.9481 7.13762 10.957 7.98016 11.152 8.789L2.841 17.1C2.56998 17.3656 2.3543 17.6823 2.20643 18.0318C2.05857 18.3812 1.98145 18.7565 1.97953 19.136C1.97761 19.5155 2.05094 19.8915 2.19527 20.2425C2.3396 20.5934 2.55207 20.9123 2.82039 21.1806C3.08871 21.4489 3.40756 21.6614 3.75851 21.8057C4.10946 21.9501 4.48553 22.0234 4.86499 22.0215C5.24445 22.0196 5.61977 21.9424 5.96924 21.7946C6.31871 21.6467 6.6354 21.431 6.901 21.16L11.016 17.047C11.0971 15.8626 11.5026 14.7234 12.188 13.754L5.84 20.1C5.58274 20.3573 5.23382 20.5018 4.87 20.5018C4.50618 20.5018 4.15726 20.3573 3.9 20.1C3.64274 19.8427 3.49821 19.4938 3.49821 19.13C3.49821 18.7662 3.64274 18.4173 3.9 18.16L12.524 9.538C12.6224 9.43934 12.6913 9.31523 12.7231 9.17958C12.7549 9.04393 12.7483 8.9021 12.704 8.77C12.4913 8.13481 12.4415 7.45637 12.5592 6.79693C12.677 6.1375 12.9584 5.51819 13.3778 4.99582C13.7971 4.47346 14.3409 4.06477 14.9593 3.80726C15.5777 3.54975 16.2508 3.45167 16.917 3.522L15.073 5.366C14.9569 5.48208 14.8648 5.61989 14.8019 5.77157C14.7391 5.92325 14.7068 6.08582 14.7068 6.25C14.7068 6.41418 14.7391 6.57675 14.8019 6.72843C14.8648 6.88011 14.9569 7.01792 15.073 7.134L16.866 8.927C17.1004 9.16119 17.4182 9.29274 17.7495 9.29274C18.0808 9.29274 18.3986 9.16119 18.633 8.927L20.478 7.082C20.492 7.22 20.499 7.35934 20.499 7.5C20.4992 8.2337 20.2977 8.95333 19.9163 9.58016C19.535 10.207 18.9887 10.7169 18.337 11.054C18.9763 11.1366 19.5998 11.3139 20.187 11.58C20.7576 11.0645 21.2138 10.435 21.5261 9.73224C21.8384 9.02947 21.9998 8.26903 22 7.5C22 6.733 21.843 6.002 21.558 5.337C21.5098 5.22421 21.4348 5.12494 21.3393 5.0479C21.2439 4.97086 21.1311 4.91839 21.0107 4.8951C20.8902 4.8718 20.766 4.8784 20.6487 4.91429C20.5314 4.95019 20.4247 5.0143 20.338 5.101L17.75 7.69L16.311 6.25L18.9 3.662C18.9867 3.57533 19.0509 3.46872 19.0869 3.3515C19.1228 3.23428 19.1295 3.11003 19.1063 2.98963C19.0831 2.86923 19.0308 2.75635 18.9538 2.66088C18.8769 2.56541 18.7777 2.49025 18.665 2.442C17.9807 2.14973 17.2441 1.99936 16.5 2ZM14.277 13.976C14.3516 14.2345 14.3733 14.5055 14.3407 14.7726C14.3082 15.0397 14.222 15.2975 14.0875 15.5306C13.953 15.7636 13.7728 15.9671 13.5577 16.1289C13.3427 16.2906 13.0972 16.4073 12.836 16.472L12.252 16.616C12.1578 17.2151 12.1598 17.8255 12.258 18.424L12.798 18.554C13.0616 18.6175 13.3095 18.7339 13.5267 18.8962C13.7439 19.0585 13.9258 19.2632 14.0614 19.4979C14.1971 19.7327 14.2835 19.9926 14.3156 20.2618C14.3477 20.531 14.3247 20.8039 14.248 21.064L14.061 21.695C14.501 22.081 15.001 22.394 15.546 22.617L16.039 22.098C16.2258 21.9015 16.4507 21.745 16.6998 21.6381C16.949 21.5312 17.2173 21.476 17.4885 21.476C17.7597 21.476 18.028 21.5312 18.2772 21.6381C18.5263 21.745 18.7512 21.9015 18.938 22.098L19.437 22.623C19.9779 22.4024 20.4787 22.0939 20.919 21.71L20.721 21.024C20.6464 20.7654 20.6248 20.4944 20.6574 20.2272C20.69 19.96 20.7762 19.7022 20.9109 19.4692C21.0455 19.2361 21.2258 19.0326 21.441 18.8709C21.6561 18.7092 21.9017 18.5926 22.163 18.528L22.746 18.384C22.8402 17.7849 22.8382 17.1745 22.74 16.576L22.2 16.446C21.9365 16.3824 21.6887 16.2659 21.4716 16.1036C21.2545 15.9413 21.0727 15.7365 20.9372 15.5018C20.8017 15.267 20.7153 15.0072 20.6833 14.738C20.6513 14.4688 20.6743 14.196 20.751 13.936L20.937 13.306C20.4967 12.9187 19.9953 12.6071 19.453 12.384L18.96 12.902C18.7732 13.0987 18.5483 13.2553 18.299 13.3623C18.0497 13.4693 17.7813 13.5245 17.51 13.5245C17.2387 13.5245 16.9703 13.4693 16.721 13.3623C16.4717 13.2553 16.2468 13.0987 16.06 12.902L15.562 12.377C15.018 12.597 14.518 12.907 14.079 13.289L14.277 13.976ZM17.5 19C16.7 19 16.05 18.328 16.05 17.5C16.05 16.672 16.7 16 17.5 16C18.3 16 18.95 16.672 18.95 17.5C18.95 18.328 18.3 19 17.5 19Z"/>
</mask>
<path d="M16.5 2C15.668 1.99982 14.8468 2.18841 14.0982 2.55157C13.3496 2.91472 12.6932 3.44298 12.1783 4.09656C11.6635 4.75014 11.3036 5.51202 11.1258 6.32482C10.9481 7.13762 10.957 7.98016 11.152 8.789L2.841 17.1C2.56998 17.3656 2.3543 17.6823 2.20643 18.0318C2.05857 18.3812 1.98145 18.7565 1.97953 19.136C1.97761 19.5155 2.05094 19.8915 2.19527 20.2425C2.3396 20.5934 2.55207 20.9123 2.82039 21.1806C3.08871 21.4489 3.40756 21.6614 3.75851 21.8057C4.10946 21.9501 4.48553 22.0234 4.86499 22.0215C5.24445 22.0196 5.61977 21.9424 5.96924 21.7946C6.31871 21.6467 6.6354 21.431 6.901 21.16L11.016 17.047C11.0971 15.8626 11.5026 14.7234 12.188 13.754L5.84 20.1C5.58274 20.3573 5.23382 20.5018 4.87 20.5018C4.50618 20.5018 4.15726 20.3573 3.9 20.1C3.64274 19.8427 3.49821 19.4938 3.49821 19.13C3.49821 18.7662 3.64274 18.4173 3.9 18.16L12.524 9.538C12.6224 9.43934 12.6913 9.31523 12.7231 9.17958C12.7549 9.04393 12.7483 8.9021 12.704 8.77C12.4913 8.13481 12.4415 7.45637 12.5592 6.79693C12.677 6.1375 12.9584 5.51819 13.3778 4.99582C13.7971 4.47346 14.3409 4.06477 14.9593 3.80726C15.5777 3.54975 16.2508 3.45167 16.917 3.522L15.073 5.366C14.9569 5.48208 14.8648 5.61989 14.8019 5.77157C14.7391 5.92325 14.7068 6.08582 14.7068 6.25C14.7068 6.41418 14.7391 6.57675 14.8019 6.72843C14.8648 6.88011 14.9569 7.01792 15.073 7.134L16.866 8.927C17.1004 9.16119 17.4182 9.29274 17.7495 9.29274C18.0808 9.29274 18.3986 9.16119 18.633 8.927L20.478 7.082C20.492 7.22 20.499 7.35934 20.499 7.5C20.4992 8.2337 20.2977 8.95333 19.9163 9.58016C19.535 10.207 18.9887 10.7169 18.337 11.054C18.9763 11.1366 19.5998 11.3139 20.187 11.58C20.7576 11.0645 21.2138 10.435 21.5261 9.73224C21.8384 9.02947 21.9998 8.26903 22 7.5C22 6.733 21.843 6.002 21.558 5.337C21.5098 5.22421 21.4348 5.12494 21.3393 5.0479C21.2439 4.97086 21.1311 4.91839 21.0107 4.8951C20.8902 4.8718 20.766 4.8784 20.6487 4.91429C20.5314 4.95019 20.4247 5.0143 20.338 5.101L17.75 7.69L16.311 6.25L18.9 3.662C18.9867 3.57533 19.0509 3.46872 19.0869 3.3515C19.1228 3.23428 19.1295 3.11003 19.1063 2.98963C19.0831 2.86923 19.0308 2.75635 18.9538 2.66088C18.8769 2.56541 18.7777 2.49025 18.665 2.442C17.9807 2.14973 17.2441 1.99936 16.5 2ZM14.277 13.976C14.3516 14.2345 14.3733 14.5055 14.3407 14.7726C14.3082 15.0397 14.222 15.2975 14.0875 15.5306C13.953 15.7636 13.7728 15.9671 13.5577 16.1289C13.3427 16.2906 13.0972 16.4073 12.836 16.472L12.252 16.616C12.1578 17.2151 12.1598 17.8255 12.258 18.424L12.798 18.554C13.0616 18.6175 13.3095 18.7339 13.5267 18.8962C13.7439 19.0585 13.9258 19.2632 14.0614 19.4979C14.1971 19.7327 14.2835 19.9926 14.3156 20.2618C14.3477 20.531 14.3247 20.8039 14.248 21.064L14.061 21.695C14.501 22.081 15.001 22.394 15.546 22.617L16.039 22.098C16.2258 21.9015 16.4507 21.745 16.6998 21.6381C16.949 21.5312 17.2173 21.476 17.4885 21.476C17.7597 21.476 18.028 21.5312 18.2772 21.6381C18.5263 21.745 18.7512 21.9015 18.938 22.098L19.437 22.623C19.9779 22.4024 20.4787 22.0939 20.919 21.71L20.721 21.024C20.6464 20.7654 20.6248 20.4944 20.6574 20.2272C20.69 19.96 20.7762 19.7022 20.9109 19.4692C21.0455 19.2361 21.2258 19.0326 21.441 18.8709C21.6561 18.7092 21.9017 18.5926 22.163 18.528L22.746 18.384C22.8402 17.7849 22.8382 17.1745 22.74 16.576L22.2 16.446C21.9365 16.3824 21.6887 16.2659 21.4716 16.1036C21.2545 15.9413 21.0727 15.7365 20.9372 15.5018C20.8017 15.267 20.7153 15.0072 20.6833 14.738C20.6513 14.4688 20.6743 14.196 20.751 13.936L20.937 13.306C20.4967 12.9187 19.9953 12.6071 19.453 12.384L18.96 12.902C18.7732 13.0987 18.5483 13.2553 18.299 13.3623C18.0497 13.4693 17.7813 13.5245 17.51 13.5245C17.2387 13.5245 16.9703 13.4693 16.721 13.3623C16.4717 13.2553 16.2468 13.0987 16.06 12.902L15.562 12.377C15.018 12.597 14.518 12.907 14.079 13.289L14.277 13.976ZM17.5 19C16.7 19 16.05 18.328 16.05 17.5C16.05 16.672 16.7 16 17.5 16C18.3 16 18.95 16.672 18.95 17.5C18.95 18.328 18.3 19 17.5 19Z" stroke="black" stroke-width="2" mask="url(#path-1-inside-1_24_6006)"/>
</svg>
