<svg width="24" height="24" viewBox="0 0 24 24" fill="none" xmlns="http://www.w3.org/2000/svg">
<path d="M14.9994 16.3265L16.4084 17.8131C17.1584 18.6044 17.5334 19 17.9994 19C18.4654 19 18.8404 18.6044 19.5904 17.8131L20.9994 16.3265M17.9994 18.9128V14.5377C17.9994 12.3042 17.9994 11.1875 17.5526 10.2028C17.1057 9.21804 16.2653 8.48266 14.5844 7.01192L13.9994 6.5" stroke="black" stroke-width="1.5" stroke-linecap="round" stroke-linejoin="round"/>
<path d="M2.99963 6.5C2.99963 5.27489 2.99963 4.66233 3.23805 4.1944C3.44778 3.78279 3.78242 3.44815 4.19403 3.23842C4.66196 3 5.27452 3 6.49963 3C7.72474 3 8.33731 3 8.80524 3.23842C9.21685 3.44815 9.55149 3.78279 9.76122 4.1944C9.99964 4.66233 9.99964 5.27489 9.99964 6.5C9.99964 7.72511 9.99964 8.33767 9.76122 8.8056C9.55149 9.21721 9.21685 9.55185 8.80524 9.76158C8.33731 10 7.72474 10 6.49963 10C5.27452 10 4.66196 10 4.19403 9.76158C3.78242 9.55185 3.44778 9.21721 3.23805 8.8056C2.99963 8.33767 2.99963 7.72511 2.99963 6.5Z" stroke="black" stroke-width="1.5"/>
<path d="M2.99963 17.5C2.99963 16.2749 2.99963 15.6623 3.23805 15.1944C3.44778 14.7828 3.78242 14.4481 4.19403 14.2384C4.66196 14 5.27452 14 6.49963 14C7.72474 14 8.33731 14 8.80524 14.2384C9.21685 14.4481 9.55149 14.7828 9.76122 15.1944C9.99964 15.6623 9.99964 16.2749 9.99964 17.5C9.99964 18.7251 9.99964 19.3377 9.76122 19.8056C9.55149 20.2172 9.21685 20.5519 8.80524 20.7616C8.33731 21 7.72474 21 6.49963 21C5.27452 21 4.66196 21 4.19403 20.7616C3.78242 20.5519 3.44778 20.2172 3.23805 19.8056C2.99963 19.3377 2.99963 18.7251 2.99963 17.5Z" stroke="black" stroke-width="1.5"/>
</svg>
